<?xml version="1.0" standalone="no"?><!DOCTYPE svg PUBLIC "-//W3C//DTD SVG 1.1//EN" "http://www.w3.org/Graphics/SVG/1.1/DTD/svg11.dtd"><svg class="icon" width="200px" height="200.00px" viewBox="0 0 1024 1024" version="1.1" xmlns="http://www.w3.org/2000/svg"><path d="M511.996373 511.996373m-511.996373 0a511.996373 511.996373 0 1 0 1023.992747 0 511.996373 511.996373 0 1 0-1023.992747 0Z" fill="#ededed" /><path d="M426.663644 557.500051h147.902953V733.861468H426.663644z" fill="#f8b590" /><path d="M881.764421 866.127198A510.503051 510.503051 0 0 1 511.996373 1023.992747a510.503051 510.503051 0 0 1-369.768047-157.865549v-106.665911a25.599819 25.599819 0 0 1 25.599819-25.599819h688.336457a25.599819 25.599819 0 0 1 25.599819 25.599819v106.665911z" fill="#373c42" /><path d="M802.127652 933.902718A509.649723 509.649723 0 0 1 511.996373 1023.992747c-105.257921 0-203.091895-31.765108-284.435318-86.20739V733.861468H802.127652v200.04125z" fill="#434b54" /><path d="M366.930734 176.361417h204.79855a25.599819 25.599819 0 0 1 25.599818 25.599819v219.006449H341.330916V201.961236a25.599819 25.599819 0 0 1 25.599818-25.599819z" fill="#403d3b" /><path d="M429.500958 227.561055h204.798549a25.599819 25.599819 0 0 1 25.599819 25.599818v150.740266h-255.998187v-150.740266a25.599819 25.599819 0 0 1 25.599819-25.599818z" fill="#403d3b" /><path d="M312.893784 364.093421m36.970404 0l28.458466 0q36.970405 0 36.970404 36.970405l0 0.021333q0 36.970405-36.970404 36.970405l-28.458466 0q-36.970405 0-36.970404-36.970405l0-0.021333q0-36.970405 36.970404-36.970405Z" fill="#f8b590" /><path d="M585.958516 358.397461m36.970405 0l28.458465 0q36.970405 0 36.970405 36.970405l0 0.021333q0 36.970405-36.970405 36.970405l-28.458465 0q-36.970405 0-36.970405-36.970405l0-0.021333q0-36.970405 36.970405-36.970405Z" fill="#f8b590" /><path d="M389.69324 278.760692h221.865095a25.599819 25.599819 0 0 1 25.599818 25.599819v196.265276a136.532366 136.532366 0 1 1-273.064732 0v-196.265276a25.599819 25.599819 0 0 1 25.599819-25.599819z" fill="#ffcfb6" /><path d="M426.663644 540.433505h147.902953A56.895597 56.895597 0 0 1 517.692333 597.329102h-34.133092A56.895597 56.895597 0 0 1 426.663644 540.433505z" fill="#f96e6f" /><path d="M572.326613 1020.472772A517.329669 517.329669 0 0 1 426.663644 1016.91013V688.357791l73.94081 64.916873 71.722159-64.916873v332.114981z" fill="#ffffff" /><path d="M532.028231 1023.608749a521.041643 521.041643 0 0 1-62.783555-1.365323L477.863282 733.861468h45.503677l8.661272 289.747281z" fill="#434b54" /><path d="M483.495242 1023.203419c-19.30653-1.066659-38.335728-3.199977-57.044929-6.314622-32.191772-58.452919-56.767598-125.823109-73.748811-202.067902l29.717123-10.559925-29.717123-19.967859 8.85327-44.287686L426.663644 684.048488c24.06383 151.422927 43.007695 264.46746 56.831598 339.154931zM572.155947 1020.494105c-17.941206 2.111985-36.181077 3.28531-54.655613 3.477309 13.866568-74.666138 32.938433-188.435999 57.236928-341.309583l65.108872 55.97827 8.853271 44.266353-29.717123 19.989192 29.717123 10.538592c-17.450543 78.420778-42.965029 147.454956-76.543458 207.059867z" fill="#666f79" /></svg>