<?xml version="1.0" standalone="no"?><!DOCTYPE svg PUBLIC "-//W3C//DTD SVG 1.1//EN" "http://www.w3.org/Graphics/SVG/1.1/DTD/svg11.dtd"><svg class="icon" width="200px" height="200.00px" viewBox="0 0 1024 1024" version="1.1" xmlns="http://www.w3.org/2000/svg"><path d="M512 0c282.770286 0 512 229.229714 512 512S794.770286 1024 512 1024 0 794.770286 0 512 229.229714 0 512 0z" fill="#f49090" /><path d="M788.973714 372.370286l11.611429 558.537143-236.105143-69.065143-13.531429-96.365715 238.025143-393.106285z m-508.964571 0l-19.346286 514.523428 245.76-25.051428-9.673143-98.285715-216.740571-391.186285z" fill="#312b28" /><path d="M819.2 918.765714c-11.867429-15.725714-32.749714-36.022857-68.754286-53.248-54.089143-25.856-116.461714-26.587429-116.461714-26.587428l-133.961143 39.003428-102.710857-40.118857s-70.034286 4.352-120.173714 33.170286c-35.072 20.132571-57.234286 34.505143-69.376 47.780571C292.242286 978.358857 392.832 1024 504.868571 1024c118.418286 0 227.401143-39.314286 314.331429-105.234286z" fill="#fafcff" /><path d="M465.664 744.722286h113.92v76.434285l127.908571 19.602286s-81.225143 52.918857-187.867428 52.918857c-92.397714 0-165.888-54.875429-165.888-54.875428l111.926857-19.602286v-74.477714z" fill="#ffecd5" /><path d="M301.824 306.249143l-3.931429 112.987428s5.705143 91.245714 17.682286 150.637715c8.539429 42.349714 24.118857 76.598857 53.028572 114.962285 41.929143 55.68 118.820571 97.042286 157.110857 97.133715 40.301714 0.091429 105.856-35.474286 147.291428-85.248 25.106286-30.153143 62.390857-81.810286 68.736-120.905143 13.129143-80.950857 21.595429-214.070857 21.595429-214.070857l-74.624-101.083429-386.889143 45.586286z" fill="#fff8ef" /><path d="M508.617143 130.322286c-200.96 0-240.146286 171.373714-240.146286 226.011428 0 84.608-7.808 202.203429-7.808 202.203429s20.297143-80.603429 21.467429-75.337143c3.108571 14.025143 3.401143 47.762286 3.913143 47.597714 3.328-1.115429 33.188571 15.853714 33.188571 15.853715l-1.956571-128.859429s58.550857 2.194286 107.392-21.814857c41.325714-20.297143 46.848-99.108571 46.848-99.108572s25.234286 90.934857 83.968 105.051429c58.733714 14.134857 154.660571-14.518857 164.004571 27.757714 13.202286 59.702857 5.668571 86.436571 2.084571 125.110857-0.054857 0.603429 25.234286-14.08 25.234286-14.08s4.315429-35.529143 5.869714-47.579428c2.779429-21.394286 13.659429 54.144 13.659429 53.522286 0.548571-17.042286 15.634286-95.232 15.634286-182.381715 0-113.078857-96.969143-233.947429-273.353143-233.947428z" fill="#312b28" /><path d="M299.849143 484.059429c0.146286-0.054857-9.069714-25.965714-28.964572-12.379429-11.264 7.68-12.214857 43.227429-7.716571 61.915429 5.723429 23.771429 15.908571 32.292571 25.088 39.204571 7.533714 5.138286 19.309714 4.48 19.309714 4.132571l-7.716571-92.873142z m432.310857-18.102858c-0.146286-0.073143 9.325714-2.541714 20.955429 4.132572 11.666286 6.692571 12.050286 43.465143 7.606857 62.262857-5.632 23.881143-15.707429 32.457143-24.758857 39.424-7.405714 5.156571-20.992 5.504-20.992 5.156571l17.188571-110.994285z" fill="#fff8ef" /></svg>