<?xml version="1.0" standalone="no"?><!DOCTYPE svg PUBLIC "-//W3C//DTD SVG 1.1//EN" "http://www.w3.org/Graphics/SVG/1.1/DTD/svg11.dtd"><svg class="icon" width="200px" height="200.00px" viewBox="0 0 1024 1024" version="1.1" xmlns="http://www.w3.org/2000/svg"><path d="M697.32375463 32.1376139c-160.76767998 0-291.09268265 130.32609386-291.09268262 291.09159141 0 33.34941226 5.6824875 65.35624746 16.00723731 95.19421869L71.34306667 766.72519895c-50.36849599 50.37067838-50.36849599 132.03433386 0 182.40282879 50.37067838 50.36849599 132.03433386 50.36849599 182.40282879 0l24.24935572-24.07034453 70.28558189 0c16.33360425 0 29.57382185-13.24021762 29.57382186-29.57382189l0-68.66357332 68.66357334 0c16.33360425 0 29.57382185-13.24021762 29.57382187-29.57382186l0-68.82184427L605.88766186 599.5873696c28.76281811 9.51265492 59.48056 14.73451731 91.43500159 14.73451733 160.76549653 0 291.09159145-130.32609386 291.09159149-291.09268268C988.41425385 162.46370771 858.0892512 32.1376139 697.32375463 32.1376139zM767.18473169 346.51692479c-49.83801383 0-90.23868799-40.4017664-90.23868796-90.23868799 0-49.83801383 40.4017664-90.23759677 90.23868801-90.2375968 49.83801383 0 90.23868799 40.39958293 90.23868801 90.2375968C857.42341972 306.1151595 817.0227456 346.51692479 767.18473169 346.51692479z" fill="#ff5777" /></svg>