<?xml version="1.0" standalone="no"?><!DOCTYPE svg PUBLIC "-//W3C//DTD SVG 1.1//EN" "http://www.w3.org/Graphics/SVG/1.1/DTD/svg11.dtd"><svg class="icon" width="200px" height="200.00px" viewBox="0 0 1024 1024" version="1.1" xmlns="http://www.w3.org/2000/svg"><path d="M276.830316 613.402947l11.425684 80.303158-7.949474 0.458106 6.090106 42.630736c2.155789 17.111579 17.515789 31.420632 33.010526 31.420632h569.209263a44.301474 44.301474 0 0 0 0 73.081263H319.595789c-52.870737 0-99.031579-41.633684-105.498947-94.854737l-18.216421-128.053894 80.922947-4.985264z m0 0L855.04 577.751579l4.958316-0.161684c11.425684 0 23.525053-10.778947 24.818526-21.61179l0.673684-4.473263 57.45179-326.467368c1.077895-12.261053-1.994105-22.312421-7.087158-28.025263a14.632421 14.632421 0 0 0-12.018526-5.605053H213.504l18.593684 107.358316 44.732632 314.637473z m42.576842 73.970527a51.415579 51.415579 0 0 1 18.701474 3.233684l23.174736-1.428211-0.943157-6.440421-80.033685 11.425685 4.985263 80.707368 107.62779-6.656h520.704c20.237474 0 36.540632 16.330105 36.540632 36.567579 0 20.210526-16.303158 36.513684-36.540632 36.513684H319.622737c-52.870737 0-99.031579-41.633684-105.498948-94.854737L152.037053 310.164211 116.682105 106.199579c-1.967158-17.650526-18.270316-32.202105-34.169263-32.202105H36.540632C16.330105 74.024421 0 57.721263 0 37.483789 0 17.273263 16.303158 0.943158 36.540632 0.943158h46.160842c53.221053 0 99.974737 41.445053 106.469052 94.693053l2.56 14.928842h732.106106c27.917474 0 53.625263 11.398737 72.299789 32.606315 21.423158 23.983158 31.043368 57.936842 26.920421 93.103158l-57.936842 329.242948c-6.117053 51.253895-52.466526 92.914526-105.094737 92.914526l-469.611789 28.941474h-71.006316z m-0.808421 200.08421a68.149895 68.149895 0 0 1 68.257684 68.284632A68.149895 68.149895 0 0 1 318.571789 1024a68.149895 68.149895 0 0 1-68.257684-68.257684 68.149895 68.149895 0 0 1 68.257684-68.284632z m521.970526-9.62021a73.054316 73.054316 0 0 1 73.054316 73.081263A72.946526 72.946526 0 0 1 840.569263 1024a72.946526 72.946526 0 0 1-73.081263-73.081263 72.946526 72.946526 0 0 1 73.081263-73.081263z" fill="#ff5777" /></svg>