<?xml version="1.0" standalone="no"?><!DOCTYPE svg PUBLIC "-//W3C//DTD SVG 1.1//EN" "http://www.w3.org/Graphics/SVG/1.1/DTD/svg11.dtd"><svg class="icon" width="59px" height="59.00px" viewBox="0 0 1024 1024" version="1.1" xmlns="http://www.w3.org/2000/svg"><path d="M440.469333 106.666667 154.346667 106.666667C128.021333 106.666667 106.666667 128.021333 106.666667 154.346667l0 286.122667c0 26.325333 21.354667 47.68 47.68 47.68l286.122667 0c26.325333 0 47.68-21.354667 47.68-47.68L488.149333 154.346667C488.149333 128.021333 466.816 106.666667 440.469333 106.666667zM869.653333 106.666667 583.530667 106.666667c-26.346667 0-47.68 21.354667-47.68 47.68l0 286.122667c0 26.325333 21.354667 47.68 47.68 47.68l286.122667 0c26.325333 0 47.68-21.354667 47.68-47.68L917.333333 154.346667C917.333333 128.021333 895.978667 106.666667 869.653333 106.666667zM440.469333 535.850667 154.346667 535.850667C128.021333 535.850667 106.666667 557.184 106.666667 583.530667l0 286.122667C106.666667 895.978667 128.021333 917.333333 154.346667 917.333333l286.122667 0c26.325333 0 47.68-21.354667 47.68-47.68L488.149333 583.530667C488.149333 557.184 466.816 535.850667 440.469333 535.850667zM869.653333 535.850667 583.530667 535.850667c-26.346667 0-47.68 21.354667-47.68 47.68l0 286.122667c0 26.325333 21.354667 47.68 47.68 47.68l286.122667 0C895.978667 917.333333 917.333333 895.978667 917.333333 869.653333L917.333333 583.530667C917.333333 557.184 895.978667 535.850667 869.653333 535.850667z" fill="#d3217b" /></svg>